HIERARCHY
ROOT Hips
{
  OFFSET 0 0 0
  CHANNELS 6 Xposition Yposition Zposition Zrotation Xrotation Yrotation
  JOINT Spine
  {
    OFFSET 0 8.08348 0
    CHANNELS 3 Zrotation Xrotation Yrotation
    JOINT Spine1
    {
      OFFSET 0 24.6145 0
      CHANNELS 3 Zrotation Xrotation Yrotation
      JOINT Neck
      {
        OFFSET 0 24.5134 2.22849
        CHANNELS 3 Zrotation Xrotation Yrotation
        JOINT Head
        {
          OFFSET 0 13.8011 -1.97158
          CHANNELS 3 Zrotation Xrotation Yrotation
          End Site
          {
            OFFSET 0 19.7158 0
          }
        }
      }
      JOINT LeftShoulder
      {
        OFFSET 3.94856 23.7669 -0.001842
        CHANNELS 3 Zrotation Xrotation Yrotation
        JOINT LeftArm
        {
          OFFSET 8.44442 0 0
          CHANNELS 3 Zrotation Xrotation Yrotation
          JOINT LeftForeArm
          {
            OFFSET 36.6799 0 0
            CHANNELS 3 Zrotation Xrotation Yrotation
            JOINT LeftHand
            {
              OFFSET 28.1618 0 0
              CHANNELS 3 Zrotation Xrotation Yrotation
              End Site
              {
                OFFSET 14.7869 0 0
              }
            }
          }
        }
      }
      JOINT RightShoulder
      {
        OFFSET -3.93736 23.7669 -0.001842
        CHANNELS 3 Zrotation Xrotation Yrotation
        JOINT RightArm
        {
          OFFSET -8.44442 0 0
          CHANNELS 3 Zrotation Xrotation Yrotation
          JOINT RightForeArm
          {
            OFFSET -36.6799 0 0
            CHANNELS 3 Zrotation Xrotation Yrotation
            JOINT RightHand
            {
              OFFSET -28.1618 0 0
              CHANNELS 3 Zrotation Xrotation Yrotation
              End Site
              {
                OFFSET -14.7869 0 0
              }
            }
          }
        }
      }
    }
  }
  JOINT LeftUpLeg
  {
    OFFSET 9.8579 0 0
    CHANNELS 3 Zrotation Xrotation Yrotation
    JOINT LeftLeg
    {
      OFFSET 0 -43.507 0
      CHANNELS 3 Zrotation Xrotation Yrotation
      JOINT LeftFoot
      {
        OFFSET 0 -37.4368 0
        CHANNELS 3 Zrotation Xrotation Yrotation
        JOINT LeftToeBase
        {
          OFFSET 0 -6.40764 14.7869
          CHANNELS 3 Zrotation Xrotation Yrotation
          End Site
          {
            OFFSET 0 0 3.94316
          }
        }
      }
    }
  }
  JOINT RightUpLeg
  {
    OFFSET -9.8579 0 0
    CHANNELS 3 Zrotation Xrotation Yrotation
    JOINT RightLeg
    {
      OFFSET 0 -43.507 0
      CHANNELS 3 Zrotation Xrotation Yrotation
      JOINT RightFoot
      {
        OFFSET 0 -37.4368 0
        CHANNELS 3 Zrotation Xrotation Yrotation
        JOINT RightToeBase
        {
          OFFSET 0 -6.40764 14.7869
          CHANNELS 3 Zrotation Xrotation Yrotation
          End Site
          {
            OFFSET 0 0 3.94316
          }
        }
      }
    }
  }
}
MOTION
Frames:	6
Frame Time:	0.0166667
19.9474 95.9395 -293.068 0.110135 -2.60151 -0.292252 -0.108109 -0.434973 -2.28792 -0.249377 2.45001 -0.771863 0.739254 25.9177 -17.7629 15.975 -19.0576 -13.6195 13.8193 -2.13649 -2.2551 -21.5783 -8.02139 3.80164 1.70352 -3.83572 -1.34275 1.39957 -3.84429 -2.19156 -9.1878 3.77562 0.562619 16.7055 -9.22907 -8.40963 -0.708842 0.323372 4.97406 0.350574 0.352796 -0.449008 -2.06958 11.3565 0.232221 -4.14774 -3.33688 2.86629 8.07924 -6.15181 12.9717 4.84538e-016 9.93923e-017 -0 -0.074479 7.50954 9.71533 4.29792 3.53265 14.3777 -5.97485 -7.48552 -30.0391 -5.77718e-016 -4.96962e-017 -7.95139e-016 
19.9585 95.9395 -293.028 0.122088 -2.57461 -0.308191 -0.121226 -0.462608 -2.31349 -0.248891 2.44692 -0.771861 0.693561 25.8632 -17.73 16.0263 -18.9786 -13.5848 13.8387 -2.1518 -2.25512 -21.5894 -8.0069 3.84277 1.72736 -3.83574 -1.33478 1.51152 -3.84432 -2.17754 -9.203 3.75738 0.568238 16.694 -9.28172 -8.4014 -0.766668 0.502736 4.94974 0.825431 0.532998 -0.410155 -2.09712 11.3755 0.223572 -4.14099 -3.37528 2.94827 8.13328 -6.15337 12.9079 3.23025e-016 -4.96962e-017 -3.18055e-015 -0.0991031 7.51464 9.73417 4.29431 3.52769 14.4521 -5.97722 -7.50709 -30.1057 3.41661e-016 4.96962e-017 2.38542e-015 
19.967 95.9355 -292.985 0.125104 -2.55005 -0.308793 -0.143863 -0.485113 -2.3202 -0.233249 2.43104 -0.771852 0.750878 25.8418 -17.7497 15.9957 -18.9624 -13.6118 13.8428 -2.13395 -2.26668 -21.5755 -8.06388 3.83861 1.7497 -3.82501 -1.32254 1.60293 -3.83511 -2.16659 -9.20343 3.75624 0.550723 16.6826 -9.29217 -8.40905 -0.781553 0.514478 4.96024 0.817008 0.545355 -0.427923 -2.10501 11.392 0.219384 -4.14075 -3.401 2.92996 8.16194 -6.15299 12.9324 2.73329e-016 4.96962e-017 -0 -0.109079 7.53723 9.82288 4.3018 3.47717 14.3553 -5.98229 -7.50889 -30.1005 -9.62863e-017 2.48481e-017 7.95139e-016 
19.9694 95.9305 -292.947 0.122335 -2.52713 -0.313199 -0.165557 -0.501912 -2.3293 -0.210103 2.41439 -0.775353 0.768182 25.8318 -17.7674 16.0254 -18.9604 -13.6201 13.8512 -2.15599 -2.28514 -21.5578 -8.08943 3.86507 1.76933 -3.82325 -1.30734 1.60718 -3.83317 -2.14792 -9.20385 3.75304 0.51735 16.6631 -9.2868 -8.39785 -0.714896 0.360314 5.02465 0.383091 0.390045 -0.483116 -2.10175 11.3938 0.246357 -4.14118 -3.395 2.89554 8.0842 -6.16831 12.9399 1.61513e-016 -1.49089e-016 6.36111e-015 -0.110991 7.5334 9.78621 4.30924 3.4947 14.476 -5.95873 -7.57276 -30.1867 -4.96962e-017 2.48481e-017 -0 
19.9686 95.9269 -292.911 0.117852 -2.50907 -0.316269 -0.168115 -0.525539 -2.35201 -0.20341 2.42172 -0.783072 0.747977 25.8102 -17.762 16.0694 -18.9529 -13.6043 13.8704 -2.16628 -2.29517 -21.5487 -8.08146 3.90247 1.75657 -3.82458 -1.33924 0.94705 -3.82134 -2.09118 -9.21019 3.7511 0.506775 16.6569 -9.26115 -8.38803 -0.801807 0.44612 5.00112 0.866236 0.478067 -0.427771 -2.08729 11.4061 0.257799 -4.14552 -3.34843 1.89279 8.16294 -6.13421 13.8431 5.8393e-016 1.49089e-016 -0 -0.106277 7.53997 9.85784 4.31352 3.48607 14.4124 -5.94906 -7.59369 -30.2043 2.42269e-016 2.48481e-017 7.95139e-016 
19.9669 95.926 -292.872 0.104472 -2.50877 -0.326135 -0.201358 -0.514524 -2.33921 -0.130734 2.39513 -0.783765 0.721843 25.8021 -17.7932 16.1196 -18.9166 -13.6294 13.864 -2.17278 -2.34218 -21.5487 -8.06667 3.92942 1.78008 -3.85656 -1.28002 1.51126 -3.86507 -2.15372 -9.26221 3.78903 0.445251 16.6565 -9.29467 -8.36478 -0.789818 0.4807 5.00308 0.83492 0.512618 -0.355188 -2.08338 11.4456 0.357007 -4.14638 -3.42646 2.84325 8.05319 -6.20454 12.9024 2.60905e-016 -1.98785e-016 -0 -0.0811801 7.55944 9.90784 4.29859 3.49722 14.4096 -6.02114 -7.55804 -30.2377 5.28022e-017 -4.96962e-017 -1.59028e-015 
